<svg xmlns="http://www.w3.org/2000/svg" xmlns:xlink="http://www.w3.org/1999/xlink" id="Layer_1" x="0" y="0" version="1.1" viewBox="0 0 1000 368" xml:space="preserve" style="enable-background:new 0 0 1000 368"><style type="text/css">.st0{fill:#fff}.st1{fill:url(#SVGID_1_)}.st3{fill:url(#SVGID_2_)}</style><g><path d="M366.6,78h37.1v178.9H497v32.7H366.6V78z" class="st0"/><path d="M619.8,74.5C683.3,74.5,728,120.8,728,184c0,63.1-44.7,109.5-108.2,109.5c-63.5,0-108.2-46.3-108.2-109.5 C511.6,120.8,556.3,74.5,619.8,74.5z M619.8,107.5c-42.8,0-70.1,32.7-70.1,76.5c0,43.5,27.3,76.5,70.1,76.5 c42.5,0,70.1-33,70.1-76.5C689.9,140.2,662.3,107.5,619.8,107.5z" class="st0"/><path d="M819.4,200.5L801,222v67.6h-37.1V78H801v100.9L883.8,78h46l-86,99.9l92.3,111.7h-45.7L819.4,200.5z" class="st0"/><path d="M960.9,78H998v211.6h-37.1V78z" class="st0"/></g><g><linearGradient id="SVGID_1_" x1="86.84" x2="86.84" y1="268.797" y2=".426" gradientUnits="userSpaceOnUse"><stop offset="0" style="stop-color:#78be20"/><stop offset=".12" style="stop-color:#58af21"/><stop offset=".368" style="stop-color:#199122"/><stop offset=".486" style="stop-color:#008522"/><stop offset=".693" style="stop-color:#007242"/><stop offset=".881" style="stop-color:#006459"/><stop offset="1" style="stop-color:#005f61"/></linearGradient><polygon points="132.1 268.8 .3 137 136.9 .4 173.3 36.8 73.1 137 168.5 232.4" class="st1"/></g><g><linearGradient id="SVGID_2_" x1="212.956" x2="212.956" y1="367.52" y2="99.148" gradientUnits="userSpaceOnUse"><stop offset="0" style="stop-color:#78be20"/><stop offset=".12" style="stop-color:#58af21"/><stop offset=".368" style="stop-color:#199122"/><stop offset=".486" style="stop-color:#008522"/><stop offset=".693" style="stop-color:#007242"/><stop offset=".881" style="stop-color:#006459"/><stop offset="1" style="stop-color:#005f61"/></linearGradient><polygon points="162.9 367.5 126.5 331.1 226.7 230.9 131.3 135.6 167.7 99.1 299.5 230.9" class="st3"/></g></svg>